<svg width="31" height="28" viewBox="0 0 31 28" fill="none" xmlns="http://www.w3.org/2000/svg">
<path d="M2.49 1.49L6.95 5.95C4.13092 7.76511 1.8269 10.2758 0.26 13.24L0 13.71L0.26 14.19C3.63 20.42 9.54 24.19 16.08 24.19C18.6327 24.1895 21.1522 23.6117 23.45 22.5L28.45 27.5L30.2 26L4.2 0L2.49 1.49ZM12.24 11.24L18.89 17.89C18.1386 18.3551 17.2736 18.6042 16.39 18.61C15.7479 18.61 15.1122 18.4831 14.5194 18.2364C13.9266 17.9898 13.3884 17.6284 12.9357 17.173C12.4831 16.7176 12.125 16.1772 11.8821 15.5829C11.6391 14.9886 11.516 14.3521 11.52 13.71C11.5313 12.8366 11.7802 11.9827 12.24 11.24ZM10.79 9.79C9.85443 11.1094 9.41593 12.7173 9.55211 14.329C9.6883 15.9407 10.3904 17.4522 11.5341 18.5959C12.6778 19.7396 14.1893 20.4417 15.801 20.5779C17.4127 20.7141 19.0206 20.2756 20.34 19.34L21.94 20.94C20.0878 21.7317 18.0943 22.1399 16.08 22.14C10.45 22.14 5.33 19 2.28 13.71C3.74371 11.1182 5.85172 8.9482 8.4 7.41L10.79 9.79Z" fill="#CAC9D2"/>
</svg>
